<svg width="113" height="159" viewBox="0 0 113 159" fill="none" xmlns="http://www.w3.org/2000/svg">
<path d="M52.2685 124.797V81.0114H69.1651C72.853 81.0114 75.9083 81.6314 78.331 82.8714C80.7536 84.1114 82.5667 85.8075 83.7703 87.9597C84.9739 90.0976 85.5757 92.5064 85.5757 95.186C85.5757 97.8798 84.9662 100.303 83.7471 102.455C82.5435 104.593 80.7227 106.289 78.2847 107.543C75.862 108.783 72.8145 109.403 69.142 109.403H57.5226V103.802H68.4939C70.8239 103.802 72.7142 103.431 74.1646 102.69C75.6151 101.935 76.6799 100.909 77.3588 99.6115C78.0378 98.3145 78.3772 96.8393 78.3772 95.186C78.3772 93.5326 78.0378 92.0646 77.3588 90.7818C76.6799 89.499 75.6074 88.4942 74.1415 87.7673C72.691 87.0404 70.7776 86.6769 68.4013 86.6769H59.4206V124.797H52.2685Z" fill="#00FF0A"/>
<path d="M113 57.314H96.7824C95.8233 53.0052 94.1449 49.22 91.7471 45.9583C89.3929 42.6966 86.5156 39.9583 83.1152 37.7436C79.7583 35.4886 76.0309 33.7973 71.9329 32.6698C67.8349 31.5423 63.5625 30.9785 59.1157 30.9785C51.0069 30.9785 43.6611 32.8711 37.0781 36.6563C30.5388 40.4416 25.3291 46.0187 21.4491 53.3878C17.6127 60.7569 15.6944 69.7971 15.6944 80.5085C15.6944 91.2198 17.6127 100.26 21.4491 107.629C25.3291 114.998 30.5388 120.575 37.0781 124.361C43.6611 128.146 51.0069 130.038 59.1157 130.038C63.5625 130.038 67.8349 129.475 71.9329 128.347C76.0309 127.22 79.7583 125.548 83.1152 123.334C86.5156 121.079 89.3929 118.32 91.7471 115.059C94.1449 111.757 95.8233 107.971 96.7824 103.703H113C111.779 110.025 109.556 115.683 106.33 120.676C103.104 125.669 99.093 129.918 94.2975 133.421C89.5019 136.884 84.1179 139.522 78.1453 141.334C72.2162 143.146 65.8731 144.052 59.1157 144.052C47.6937 144.052 37.5359 141.475 28.6424 136.32C19.7488 131.166 12.7517 123.837 7.65104 114.334C2.55035 104.83 0 93.5554 0 80.5085C0 67.4615 2.55035 56.1864 7.65104 46.6831C12.7517 37.1798 19.7488 29.851 28.6424 24.6967C37.5359 19.5423 47.6937 16.9652 59.1157 16.9652C65.8731 16.9652 72.2162 17.8712 78.1453 19.6833C84.1179 21.4954 89.5019 24.1531 94.2975 27.6564C99.093 31.1195 103.104 35.3476 106.33 40.3409C109.556 45.2939 111.779 50.9516 113 57.314Z" fill="#00EEFF"/>
<path d="M33.0493 0H49.0622V29.5814H33.0493V0Z" fill="#00EEFF"/>
<path d="M33.0493 130.343H49.0622V159H33.0493V130.343Z" fill="#00EEFF"/>
<path d="M68.0775 0H83.0896V29.5814H68.0775V0Z" fill="#00EEFF"/>
<path d="M68.0775 130.343H83.0896V159H68.0775V130.343Z" fill="#00EEFF"/>
</svg>
